<svg width="22" height="24" viewBox="0 0 22 24" fill="none" xmlns="http://www.w3.org/2000/svg">
<path d="M19.6429 0H2.35714C1.1 0 0 1.05 0 2.25V21.75C0 22.95 1.1 24 2.35714 24H19.6429C20.9 24 22 22.95 22 21.75V2.25C22 1.05 20.9 0 19.6429 0ZM6.28571 20.4C6.28571 20.7 5.97143 21 5.65714 21H3.77143C3.45714 21 3.14286 20.7 3.14286 20.4V18.6C3.14286 18.3 3.45714 18 3.77143 18H5.65714C5.97143 18 6.28571 18.3 6.28571 18.6V20.4ZM6.28571 14.4C6.28571 14.7 5.97143 15 5.65714 15H3.77143C3.45714 15 3.14286 14.7 3.14286 14.4V12.6C3.14286 12.3 3.45714 12 3.77143 12H5.65714C5.97143 12 6.28571 12.3 6.28571 12.6V14.4ZM12.5714 20.4C12.5714 20.7 12.2571 21 11.9429 21H10.0571C9.74286 21 9.42857 20.7 9.42857 20.4V18.6C9.42857 18.3 9.74286 18 10.0571 18H11.9429C12.2571 18 12.5714 18.3 12.5714 18.6V20.4ZM12.5714 14.4C12.5714 14.7 12.2571 15 11.9429 15H10.0571C9.74286 15 9.42857 14.7 9.42857 14.4V12.6C9.42857 12.3 9.74286 12 10.0571 12H11.9429C12.2571 12 12.5714 12.3 12.5714 12.6V14.4ZM18.8571 20.4C18.8571 20.7 18.5429 21 18.2286 21H16.3429C16.0286 21 15.7143 20.7 15.7143 20.4V12.6C15.7143 12.3 16.0286 12 16.3429 12H18.2286C18.5429 12 18.8571 12.3 18.8571 12.6V20.4ZM18.8571 8.4C18.8571 8.7 18.5429 9 18.2286 9H3.77143C3.45714 9 3.14286 8.7 3.14286 8.4V3.6C3.14286 3.3 3.45714 3 3.77143 3H18.2286C18.5429 3 18.8571 3.3 18.8571 3.6V8.4Z" fill="#001420" fill-opacity="0.9"/>
</svg>
