<svg width="16" height="16" viewBox="0 0 16 16" fill="none" xmlns="http://www.w3.org/2000/svg">
<g id="Icon/Outline/download">
<path id="Mask" fill-rule="evenodd" clip-rule="evenodd" d="M7.33506 8.05065C7.33381 8.03393 7.33317 8.01704 7.33317 8V2.66667C7.33317 2.29867 7.63117 2 7.99984 2C8.3685 2 8.6665 2.29867 8.6665 2.66667V7.99983L10.2664 6.8C10.5611 6.578 10.9791 6.63867 11.1998 6.93333C11.4211 7.228 11.3611 7.646 11.0664 7.86667L8.39977 9.86667C8.28177 9.95533 8.14043 10 7.99977 10C7.86577 10 7.73177 9.95933 7.61643 9.87867L4.94977 8.00267C4.64843 7.79067 4.57577 7.37467 4.78777 7.074C4.99977 6.77267 5.4151 6.7 5.71643 6.912L7.33506 8.05065ZM3.99984 11.3333V12H11.9998V11.3333C11.9998 10.9667 12.2998 10.6667 12.6665 10.6667C13.0332 10.6667 13.3332 10.9667 13.3332 11.3333V12.6667C13.3332 13.0333 13.0332 13.3333 12.6665 13.3333H3.33317C2.9665 13.3333 2.6665 13.0333 2.6665 12.6667V11.3333C2.6665 10.9667 2.9665 10.6667 3.33317 10.6667C3.69984 10.6667 3.99984 10.9667 3.99984 11.3333Z" fill="#231F20"/>
<mask id="mask0" mask-type="alpha" maskUnits="userSpaceOnUse" x="2" y="2" width="12" height="12">
<path id="Mask_2" fill-rule="evenodd" clip-rule="evenodd" d="M7.33506 8.05065C7.33381 8.03393 7.33317 8.01704 7.33317 8V2.66667C7.33317 2.29867 7.63117 2 7.99984 2C8.3685 2 8.6665 2.29867 8.6665 2.66667V7.99983L10.2664 6.8C10.5611 6.578 10.9791 6.63867 11.1998 6.93333C11.4211 7.228 11.3611 7.646 11.0664 7.86667L8.39977 9.86667C8.28177 9.95533 8.14043 10 7.99977 10C7.86577 10 7.73177 9.95933 7.61643 9.87867L4.94977 8.00267C4.64843 7.79067 4.57577 7.37467 4.78777 7.074C4.99977 6.77267 5.4151 6.7 5.71643 6.912L7.33506 8.05065ZM3.99984 11.3333V12H11.9998V11.3333C11.9998 10.9667 12.2998 10.6667 12.6665 10.6667C13.0332 10.6667 13.3332 10.9667 13.3332 11.3333V12.6667C13.3332 13.0333 13.0332 13.3333 12.6665 13.3333H3.33317C2.9665 13.3333 2.6665 13.0333 2.6665 12.6667V11.3333C2.6665 10.9667 2.9665 10.6667 3.33317 10.6667C3.69984 10.6667 3.99984 10.9667 3.99984 11.3333Z" fill="white"/>
</mask>
<g mask="url(#mask0)">
<g id="&#240;&#159;&#142;&#168; Color">
<rect id="Base" width="16" height="16" fill="#0D1C2E"/>
</g>
</g>
</g>
</svg>
