<svg width="60" height="75" viewBox="0 0 60 75" fill="none" xmlns="http://www.w3.org/2000/svg">
<path d="M30 0C25.3978 0 21.8535 3.39825 21.8535 7.46156C21.8535 11.3753 21.8225 14.7995 21.8225 14.7995H13.6397C13.4857 14.7995 13.3367 14.8146 13.1897 14.8361H10.9138V21.8719H49.0862V14.8361H46.8103C46.6633 14.8146 46.5143 14.7995 46.3603 14.7995H38.1776C38.1776 14.7995 38.2707 11.6997 38.2707 7.48444C38.2707 3.57069 34.6022 0 30 0ZM0 7.13656V75H60V7.13656H40.9914V12.0529H54.507V70.0745H5.49832V12.0529H19.0086V7.13656H0ZM30 7.22806C31.5078 7.22806 32.7259 8.30181 32.7259 9.63131C32.7259 10.9632 31.5078 12.0391 30 12.0391C28.4923 12.0391 27.2741 10.9632 27.2741 9.63131C27.2741 8.30187 28.4923 7.22806 30 7.22806ZM10.9138 26.6419V29.0497H13.6397V26.6419H10.9138ZM19.0965 26.6876V29.0954H49.0862V26.6876H19.0965ZM10.9138 35.7239V38.1317H13.6397V35.7239H10.9138ZM19.0965 35.7696V38.1821H49.0862V35.7696H19.0965ZM10.9138 44.8059V47.2137H13.6397V44.8059H10.9138ZM19.0965 44.8563V47.2641H49.0862V44.8563H19.0965V44.8563ZM10.9138 53.8925V56.3003H13.6397V53.8925H10.9138ZM19.0965 53.9429V56.3507H49.0862V53.9429H19.0965ZM10.9138 62.9746V65.3824H13.6397V62.9746H10.9138V62.9746ZM19.0965 63.0249V65.4327H49.0862V63.0249H19.0965Z" fill="#033F61" fill-opacity="0.9"/>
</svg>
