<svg width="60" height="70" viewBox="0 0 60 70" fill="none" xmlns="http://www.w3.org/2000/svg">
<path fill-rule="evenodd" clip-rule="evenodd" d="M0 10C0 7.34784 1.05357 4.8043 2.92893 2.92893C4.8043 1.05357 7.34784 0 10 0H36.465C37.791 0.000283187 39.0625 0.527253 40 1.465L58.535 20C59.4727 20.9375 59.9997 22.209 60 23.535V60C60 62.6522 58.9464 65.1957 57.0711 67.0711C55.1957 68.9464 52.6522 70 50 70H10C7.34784 70 4.8043 68.9464 2.92893 67.0711C1.05357 65.1957 0 62.6522 0 60V10ZM35 20V5L55 25H40C38.6739 25 37.4021 24.4732 36.4645 23.5355C35.5268 22.5979 35 21.3261 35 20ZM44.27 34.27C44.7394 33.8006 45.0032 33.1639 45.0032 32.5C45.0032 31.8361 44.7394 31.1994 44.27 30.73C43.8006 30.2606 43.1639 29.9968 42.5 29.9968C41.8361 29.9968 41.1994 30.2606 40.73 30.73L27.5 43.965L21.77 38.23C21.3006 37.7606 20.6639 37.4968 20 37.4968C19.3361 37.4968 18.6994 37.7606 18.23 38.23C17.7606 38.6994 17.4968 39.3361 17.4968 40C17.4968 40.6639 17.7606 41.3006 18.23 41.77L25.73 49.27C25.9622 49.5028 26.2381 49.6875 26.5418 49.8136C26.8456 49.9396 27.1712 50.0045 27.5 50.0045C27.8288 50.0045 28.1544 49.9396 28.4582 49.8136C28.7619 49.6875 29.0378 49.5028 29.27 49.27L44.27 34.27Z" fill="#033F61" fill-opacity="0.9"/>
</svg>
