<svg width="60" height="72" viewBox="0 0 60 72" fill="none" xmlns="http://www.w3.org/2000/svg">
<path d="M22.5 13.7778H45V18.2223H22.5V13.7778Z" fill="#033F61" fill-opacity="0.9"/>
<path d="M22.5 22.6666H45V27.1111H22.5V22.6666Z" fill="#033F61" fill-opacity="0.9"/>
<path d="M22.5 31.5555H45V36H22.5V31.5555Z" fill="#033F61" fill-opacity="0.9"/>
<path d="M22.5 40.4445H45V44.8889H22.5V40.4445Z" fill="#033F61" fill-opacity="0.9"/>
<path d="M22.5 49.3334H45V53.7778H22.5V49.3334Z" fill="#033F61" fill-opacity="0.9"/>
<path d="M12.5 13.7778H17.5V18.2223H12.5V13.7778Z" fill="#033F61" fill-opacity="0.9"/>
<path d="M12.5 22.6666H17.5V27.1111H12.5V22.6666Z" fill="#033F61" fill-opacity="0.9"/>
<path d="M12.5 31.5555H17.5V36H12.5V31.5555Z" fill="#033F61" fill-opacity="0.9"/>
<path d="M12.5 40.4445H17.5V44.8889H12.5V40.4445Z" fill="#033F61" fill-opacity="0.9"/>
<path d="M12.5 49.3334H17.5V53.7778H12.5V49.3334Z" fill="#033F61" fill-opacity="0.9"/>
<path d="M55 0.444458H5C3.67392 0.444458 2.40215 0.91271 1.46447 1.74621C0.526784 2.5797 0 3.71016 0 4.8889V67.1111C0 68.2899 0.526784 69.4203 1.46447 70.2538C2.40215 71.0873 3.67392 71.5556 5 71.5556H55C56.3261 71.5556 57.5978 71.0873 58.5355 70.2538C59.4732 69.4203 60 68.2899 60 67.1111V4.8889C60 3.71016 59.4732 2.5797 58.5355 1.74621C57.5978 0.91271 56.3261 0.444458 55 0.444458ZM55 67.1111H5V4.8889H55V67.1111Z" fill="#033F61" fill-opacity="0.9"/>
</svg>
