<svg width="65" height="75" viewBox="0 0 65 75" fill="none" xmlns="http://www.w3.org/2000/svg">
<path d="M63.8151 15.3809L47.2435 1.02539C46.4818 0.366211 45.4492 0 44.3659 0H43.3333V18.75H65V17.8564C65 16.9336 64.5768 16.04 63.8151 15.3809ZM37.9167 19.9219V0H4.0625C1.8112 0 0 1.56738 0 3.51562V71.4844C0 73.4326 1.8112 75 4.0625 75H60.9375C63.1888 75 65 73.4326 65 71.4844V23.4375H41.9792C39.7448 23.4375 37.9167 21.8555 37.9167 19.9219ZM10.8333 10.5469C10.8333 9.89941 11.4393 9.375 12.1875 9.375H25.7292C26.4773 9.375 27.0833 9.89941 27.0833 10.5469V12.8906C27.0833 13.5381 26.4773 14.0625 25.7292 14.0625H12.1875C11.4393 14.0625 10.8333 13.5381 10.8333 12.8906V10.5469ZM10.8333 22.2656V19.9219C10.8333 19.2744 11.4393 18.75 12.1875 18.75H25.7292C26.4773 18.75 27.0833 19.2744 27.0833 19.9219V22.2656C27.0833 22.9131 26.4773 23.4375 25.7292 23.4375H12.1875C11.4393 23.4375 10.8333 22.9131 10.8333 22.2656ZM35.2083 60.9199V64.4531C35.2083 65.1006 34.6023 65.625 33.8542 65.625H31.1458C30.3977 65.625 29.7917 65.1006 29.7917 64.4531V60.895C27.8806 60.8101 26.022 60.2329 24.4816 59.2324C23.8215 58.8032 23.7876 57.9478 24.3852 57.4541L26.3741 55.812C26.843 55.4253 27.5404 55.4077 28.0888 55.7051C28.7439 56.0596 29.487 56.25 30.2589 56.25H35.0171C36.1173 56.25 37.0145 55.3828 37.0145 54.3179C37.0145 53.4463 36.4034 52.6787 35.5299 52.4531L27.9128 50.4756C24.766 49.6582 22.5672 47.0449 22.5672 44.1196C22.5672 40.5278 25.7918 37.6099 29.79 37.5176V33.9844C29.79 33.3369 30.396 32.8125 31.1441 32.8125H33.8525C34.6007 32.8125 35.2066 33.3369 35.2066 33.9844V37.5425C37.1177 37.6274 38.9763 38.2031 40.5167 39.2051C41.1768 39.6343 41.2107 40.4897 40.6131 40.9834L38.6242 42.6255C38.1553 43.0122 37.4579 43.0298 36.9095 42.7324C36.2544 42.3765 35.5113 42.1875 34.7395 42.1875H29.9812C28.881 42.1875 27.9839 43.0547 27.9839 44.1196C27.9839 44.9912 28.5949 45.7588 29.4684 45.9844L37.0855 47.9619C40.2323 48.7793 42.4311 51.3926 42.4311 54.3179C42.4311 57.9111 39.2065 60.8276 35.2083 60.9199Z" fill="#033F61" fill-opacity="0.9"/>
</svg>
