<svg width="75" height="75" viewBox="0 0 75 75" fill="none" xmlns="http://www.w3.org/2000/svg">
<path d="M74.9999 37.4292C75.0382 58.0905 58.1885 74.9855 37.5272 75C28.6036 75.0063 20.4068 71.8957 13.9654 66.6969C12.2905 65.3451 12.1653 62.8348 13.6873 61.3128L15.391 59.6091C16.6928 58.3073 18.771 58.1649 20.2132 59.3091C24.959 63.075 30.9648 65.3227 37.5 65.3227C52.8787 65.3227 65.3225 52.8765 65.3225 37.5001C65.3225 22.1213 52.8763 9.67744 37.5 9.67744C30.1188 9.67744 23.415 12.5457 18.4373 17.2277L26.1118 24.9022C27.636 26.4264 26.5565 29.0323 24.4011 29.0323H2.41935C1.08311 29.0323 0 27.9492 0 26.613V4.63111C0 2.47576 2.60595 1.39627 4.13014 2.92032L11.5957 10.3859C18.328 3.95202 27.4524 0 37.5 0C58.1869 0 74.9617 16.751 74.9999 37.4292ZM47.6443 49.3421L49.1296 47.4323C50.3602 45.8502 50.0752 43.5701 48.4931 42.3397L42.3387 37.5528V21.7742C42.3387 19.7699 40.7139 18.1452 38.7096 18.1452H36.2903C34.286 18.1452 32.6613 19.7699 32.6613 21.7742V42.286L42.5517 49.9787C44.1338 51.2091 46.4138 50.9242 47.6443 49.3421Z" fill="#033F61" fill-opacity="0.9"/>
</svg>
