<svg width="80" height="80" viewBox="0 0 80 80" fill="none" xmlns="http://www.w3.org/2000/svg">
<path fill-rule="evenodd" clip-rule="evenodd" d="M55.5665 43.7664C60.1332 46.8664 63.3332 51.0664 63.3332 56.6664V66.6664H76.6665V56.6664C76.6665 49.3997 64.7665 45.0997 55.5665 43.7664Z" fill="#033F61" fill-opacity="0.9"/>
<path d="M30 40C37.3638 40 43.3333 34.0305 43.3333 26.6667C43.3333 19.3029 37.3638 13.3334 30 13.3334C22.6362 13.3334 16.6666 19.3029 16.6666 26.6667C16.6666 34.0305 22.6362 40 30 40Z" fill="#033F61" fill-opacity="0.9"/>
<path fill-rule="evenodd" clip-rule="evenodd" d="M50 40C57.3667 40 63.3334 34.0334 63.3334 26.6667C63.3334 19.3 57.3667 13.3334 50 13.3334C48.4334 13.3334 46.9667 13.6667 45.5667 14.1334C48.4351 17.6808 49.9999 22.1047 49.9999 26.6667C49.9999 31.2287 48.4351 35.6526 45.5667 39.2C46.9667 39.6667 48.4334 40 50 40ZM30 43.3334C21.1 43.3334 3.33337 47.8 3.33337 56.6667V66.6667H56.6667V56.6667C56.6667 47.8 38.9 43.3334 30 43.3334Z" fill="#033F61" fill-opacity="0.9"/>
</svg>
