<svg width="80" height="80" viewBox="0 0 80 80" fill="none" xmlns="http://www.w3.org/2000/svg">
<path d="M27.5 60H52.5V65H27.5V60Z" fill="#033F61" fill-opacity="0.9"/>
<path d="M32.5 70H47.5V75H32.5V70Z" fill="#033F61" fill-opacity="0.9"/>
<path d="M57.6 40C56.3259 42.0092 54.7566 43.8153 52.945 45.3575C50.2675 47.8375 47.5 50.4 47.5 55H52.5C52.5 52.7 53.815 51.375 56.3375 49.035C59.2837 46.5887 61.6275 43.4973 63.1875 40H57.6Z" fill="#033F61" fill-opacity="0.9"/>
<path d="M50 34.9993C49.5358 34.999 49.0809 34.8696 48.6862 34.6254C48.2914 34.3812 47.9725 34.032 47.765 33.6168L43.4525 24.9993H35V19.9993H45C45.4642 19.9995 45.9191 20.129 46.3138 20.3732C46.7086 20.6173 47.0275 20.9666 47.235 21.3818L50 26.9068L57.765 11.3818C57.9963 10.9955 58.3238 10.6757 58.7155 10.4537C59.1072 10.2317 59.5497 10.115 60 10.115C60.4503 10.115 60.8928 10.2317 61.2845 10.4537C61.6762 10.6757 62.0037 10.9955 62.235 11.3818L66.5475 19.9993H75V24.9993H65C64.5358 24.999 64.0809 24.8696 63.6862 24.6254C63.2914 24.3812 62.9725 24.032 62.765 23.6168L60 18.0918L52.235 33.6168C52.0275 34.032 51.7086 34.3812 51.3138 34.6254C50.9191 34.8696 50.4642 34.999 50 34.9993Z" fill="#033F61" fill-opacity="0.9"/>
<path d="M27.0379 45.35C24.6966 43.5642 22.8301 41.2303 21.6029 38.5535C20.3757 35.8768 19.8254 32.9394 20.0004 30C20.007 24.6977 22.1163 19.6145 25.8656 15.8652C29.6149 12.1159 34.6981 10.0066 40.0004 10V5C33.3722 5.00728 27.0176 7.64354 22.3308 12.3304C17.644 17.0172 15.0077 23.3718 15.0004 30C14.8309 33.632 15.5268 37.2522 17.0307 40.5625C18.5346 43.8728 20.8035 46.7784 23.6504 49.04C26.1804 51.3775 27.5004 52.7025 27.5004 55H32.5004C32.5004 50.4 29.7254 47.835 27.0379 45.35Z" fill="#033F61" fill-opacity="0.9"/>
</svg>
