<svg width="65" height="68" viewBox="0 0 65 68" fill="none" xmlns="http://www.w3.org/2000/svg">
<path d="M56.2024 67.3333C58.3021 67.3333 60.3157 66.6309 61.8004 65.3807C63.285 64.1304 64.1191 62.4347 64.1191 60.6666V7.33329C64.1191 5.56518 63.285 3.86949 61.8004 2.61925C60.3157 1.369 58.3021 0.666626 56.2024 0.666626H8.74992C6.65029 0.666626 4.63665 1.369 3.15199 2.61925C1.66733 3.86949 0.833252 5.56518 0.833252 7.33329V60.6666C0.833252 62.4347 1.66733 64.1304 3.15199 65.3807C4.63665 66.6309 6.65029 67.3333 8.74992 67.3333H56.2024ZM20.6249 10.6666H44.3749V17.3333H20.6249V10.6666ZM41.4062 31.5C41.3968 33.487 40.4556 35.3904 38.7875 36.7957C37.1194 38.2011 34.8595 38.9945 32.4999 39.0033C27.6114 39.0033 23.5937 35.62 23.5937 31.5C23.5937 27.38 27.6114 24 32.4999 24C34.8591 24.0079 37.119 24.8006 38.7872 26.2054C40.4554 27.6102 41.3968 29.5133 41.4062 31.5ZM14.6874 54.6266C14.6874 49.08 22.7149 43.3766 32.4999 43.3766C42.2849 43.3766 50.3124 49.08 50.3124 54.6266V56.5033H14.6874V54.6266Z" fill="#033F61" fill-opacity="0.9"/>
</svg>
