<svg width="80" height="75" viewBox="0 0 80 75" fill="none" xmlns="http://www.w3.org/2000/svg">
<path fill-rule="evenodd" clip-rule="evenodd" d="M65.0157 14.0766H40.0302V0H15.0396V32.7281H65.0157V14.0766Z" fill="#033F61" fill-opacity="0.9"/>
<path fill-rule="evenodd" clip-rule="evenodd" d="M45.6765 0V9.08437H65.0173L45.6765 0Z" fill="#033F61" fill-opacity="0.9"/>
<path fill-rule="evenodd" clip-rule="evenodd" d="M15.0396 60.9375V74.9344H19.9424V60.9375H15.0396Z" fill="#033F61" fill-opacity="0.9"/>
<path fill-rule="evenodd" clip-rule="evenodd" d="M25.1296 60.9375V75H30.0125V60.9375H25.1296Z" fill="#033F61" fill-opacity="0.9"/>
<path fill-rule="evenodd" clip-rule="evenodd" d="M35.0919 60.9375V74.9906H40.0951V60.9375H35.0919Z" fill="#033F61" fill-opacity="0.9"/>
<path fill-rule="evenodd" clip-rule="evenodd" d="M45.1185 60.9375V74.9672H50.0615V60.9375H45.1185Z" fill="#033F61" fill-opacity="0.9"/>
<path fill-rule="evenodd" clip-rule="evenodd" d="M55.1443 60.9375V74.8312H59.972V60.9375H55.1443Z" fill="#033F61" fill-opacity="0.9"/>
<path fill-rule="evenodd" clip-rule="evenodd" d="M0 37.6465V56.2512H80V37.6465H0ZM14.8841 47.0215H9.87091V42.1887H14.8841V47.0215ZM19.8972 47.0215V42.1887H25.2212V47.0215H19.8972Z" fill="#033F61" fill-opacity="0.9"/>
</svg>
