<svg width="80" height="80" viewBox="0 0 80 80" fill="none" xmlns="http://www.w3.org/2000/svg">
<path d="M9.99998 13.3334C8.23187 13.3334 6.53618 14.0358 5.28593 15.286C4.03569 16.5362 3.33331 18.2319 3.33331 20V56.6667H9.99998C9.99998 59.3189 11.0535 61.8624 12.9289 63.7378C14.8043 65.6131 17.3478 66.6667 20 66.6667C22.6521 66.6667 25.1957 65.6131 27.071 63.7378C28.9464 61.8624 30 59.3189 30 56.6667H50C50 59.3189 51.0535 61.8624 52.9289 63.7378C54.8043 65.6131 57.3478 66.6667 60 66.6667C62.6521 66.6667 65.1957 65.6131 67.071 63.7378C68.9464 61.8624 70 59.3189 70 56.6667H76.6666V40L66.6666 26.6667H56.6666V13.3334H9.99998ZM33.3333 20L46.6666 33.3334L33.3333 46.6667V36.6667H13.3333V30H33.3333V20ZM56.6666 31.6667H65L71.5666 40H56.6666V31.6667ZM20 51.6667C21.3261 51.6667 22.5978 52.1935 23.5355 53.1312C24.4732 54.0689 25 55.3406 25 56.6667C25 57.9928 24.4732 59.2646 23.5355 60.2022C22.5978 61.1399 21.3261 61.6667 20 61.6667C18.6739 61.6667 17.4021 61.1399 16.4644 60.2022C15.5268 59.2646 15 57.9928 15 56.6667C15 55.3406 15.5268 54.0689 16.4644 53.1312C17.4021 52.1935 18.6739 51.6667 20 51.6667ZM60 51.6667C61.3261 51.6667 62.5978 52.1935 63.5355 53.1312C64.4732 54.0689 65 55.3406 65 56.6667C65 57.9928 64.4732 59.2646 63.5355 60.2022C62.5978 61.1399 61.3261 61.6667 60 61.6667C58.6739 61.6667 57.4021 61.1399 56.4644 60.2022C55.5268 59.2646 55 57.9928 55 56.6667C55 55.3406 55.5268 54.0689 56.4644 53.1312C57.4021 52.1935 58.6739 51.6667 60 51.6667Z" fill="#033F61"/>
</svg>
