<svg width="24" height="24" viewBox="0 0 24 24" fill="none" xmlns="http://www.w3.org/2000/svg">
<path d="M15.6704 7.5C15.6704 7.39687 15.586 7.3125 15.4829 7.3125H14.2055C14.1352 7.3125 14.0696 7.35234 14.0391 7.41562L12.054 11.3719H11.9766L9.99147 7.41562C9.97592 7.38477 9.95215 7.35882 9.92279 7.34062C9.89343 7.32242 9.8596 7.31269 9.82506 7.3125H8.51959C8.48912 7.3125 8.45865 7.31953 8.43053 7.33594C8.33912 7.38516 8.30631 7.5 8.35553 7.58906L10.7907 12.0797H9.45475C9.35162 12.0797 9.26725 12.1641 9.26725 12.2672V12.9023C9.26725 13.0055 9.35162 13.0898 9.45475 13.0898H11.236V14.0039H9.45475C9.35162 14.0039 9.26725 14.0883 9.26725 14.1914V14.8266C9.26725 14.9297 9.35162 15.0141 9.45475 15.0141H11.236V16.5C11.236 16.6031 11.3204 16.6875 11.4235 16.6875H12.593C12.6962 16.6875 12.7805 16.6031 12.7805 16.5V15.0117H14.5688C14.6719 15.0117 14.7563 14.9273 14.7563 14.8242V14.1891C14.7563 14.0859 14.6719 14.0016 14.5688 14.0016H12.7805V13.0875H14.5688C14.6719 13.0875 14.7563 13.0031 14.7563 12.9V12.2648C14.7563 12.1617 14.6719 12.0773 14.5688 12.0773H13.2188L15.6493 7.58672C15.661 7.56094 15.6704 7.53047 15.6704 7.5ZM3.70084 11.8172C3.74487 9.68111 4.61423 7.64505 6.12662 6.13594C6.88834 5.37422 7.77428 4.77422 8.761 4.35703C9.78287 3.92578 10.868 3.70547 11.986 3.70547C13.1063 3.70547 14.1915 3.92344 15.211 4.35703C16.1977 4.77422 17.0837 5.37422 17.8454 6.13594C18.0797 6.37031 18.2977 6.61641 18.4993 6.87188L17.3274 7.78828C17.2995 7.80988 17.2782 7.83891 17.2661 7.87205C17.2539 7.90519 17.2514 7.94108 17.2587 7.97561C17.2661 8.01013 17.283 8.04188 17.3076 8.0672C17.3322 8.09252 17.3634 8.11039 17.3977 8.11875L21.0727 9.01641C21.1899 9.04453 21.3047 8.95547 21.3047 8.83594L21.3235 5.05078C21.3235 4.89375 21.143 4.80469 21.0212 4.90312L19.9008 5.77969C18.0633 3.42891 15.2016 1.92188 11.9883 1.92188C6.49225 1.92188 2.02271 6.33047 1.92193 11.8078C1.92131 11.8328 1.9257 11.8577 1.93484 11.881C1.94398 11.9043 1.95769 11.9255 1.97517 11.9434C1.99264 11.9613 2.01352 11.9756 2.03658 11.9853C2.05964 11.995 2.08441 12 2.10943 12H3.51568C3.61647 12 3.6985 11.918 3.70084 11.8172ZM21.8907 12H20.4844C20.3837 12 20.2993 12.082 20.2969 12.1828C20.2529 14.3189 19.3835 16.355 17.8712 17.8641C17.1164 18.6219 16.2218 19.2261 15.2368 19.643C14.2149 20.0742 13.1297 20.2945 12.0118 20.2945C10.8938 20.2945 9.80631 20.0766 8.78678 19.643C7.8018 19.2261 6.90713 18.6219 6.1524 17.8641C5.91803 17.6297 5.70006 17.3836 5.4985 17.1281L6.66803 16.2117C6.69594 16.1901 6.7172 16.1611 6.72935 16.1279C6.74149 16.0948 6.74404 16.0589 6.7367 16.0244C6.72935 15.9899 6.71241 15.9581 6.68783 15.9328C6.66324 15.9075 6.63201 15.8896 6.59772 15.8812L2.92271 14.9836C2.80553 14.9555 2.69068 15.0445 2.69068 15.1641L2.67193 18.9539C2.67193 19.1109 2.8524 19.2 2.97428 19.1016L4.09459 18.225C5.93678 20.5711 8.7985 22.0781 12.0118 22.0781C17.5079 22.0781 21.9774 17.6695 22.0782 12.1922C22.0788 12.1672 22.0744 12.1423 22.0653 12.119C22.0561 12.0957 22.0424 12.0745 22.025 12.0566C22.0075 12.0387 21.9866 12.0244 21.9635 12.0147C21.9405 12.005 21.9157 12 21.8907 12Z" fill="white"/>
</svg>
