<svg width="22" height="24" viewBox="0 0 22 24" fill="none" xmlns="http://www.w3.org/2000/svg">
<path d="M13.677 9.88125C13.677 10.8422 12.9594 11.625 12.0785 11.625H9.05781V8.1375H12.0785C12.9594 8.1375 13.677 8.92031 13.677 9.88125ZM21.3125 11.625C21.3125 18.0469 16.543 23.25 10.6562 23.25C4.76953 23.25 0 18.0469 0 11.625C0 5.20312 4.76953 0 10.6562 0C16.543 0 21.3125 5.20312 21.3125 11.625ZM15.8082 9.88125C15.8082 7.63594 14.1367 5.8125 12.0785 5.8125H6.92656V17.4375H9.05781V13.95H12.0785C14.1367 13.95 15.8082 12.1266 15.8082 9.88125Z" fill="#001420" fill-opacity="0.9"/>
</svg>
