<svg width="22" height="20" viewBox="0 0 22 20" fill="none" xmlns="http://www.w3.org/2000/svg">
<path d="M0 20V0H0.75663V20H0ZM1.12893 19.9858V0H1.51326V19.9858H1.12893ZM2.26989 19.9858V0H2.64219V19.9858H2.26989ZM4.15545 19.9858V0H4.52776V19.9858H4.15545ZM5.66871 19.9858V0H6.41332V19.9858H5.66871ZM7.55428 19.9858V0H7.92658V19.9858H7.55428ZM8.31091 19.9858V0H8.68321V19.9858H8.31091ZM9.06754 19.9858V0H9.43984V19.9858H9.06754ZM10.5688 19.9858V0H11.3254V19.9858H10.5688ZM12.4544 19.9858V0H13.211V19.9858H12.4544ZM13.9676 19.9858V0H14.7243V19.9858H13.9676ZM15.4809 19.9858V0H16.2376V19.9858H15.4809ZM16.6098 19.9858V0H17.3665V19.9858H16.6098ZM18.5074 19.9858V0H19.6364V19.9858H18.5074ZM20.0087 19.9858V0H20.393V19.9858H20.0087ZM20.7653 20V0H21.5219V20H20.7653Z" fill="#033F61"/>
</svg>
