<svg width="24" height="23" viewBox="0 0 24 23" fill="none" xmlns="http://www.w3.org/2000/svg">
<path d="M0 22.4312V0.451172H0.831536V22.4312H0ZM1.2407 22.4155V0.451172H1.66307V22.4155H1.2407ZM2.49461 22.4155V0.451172H2.90377V22.4155H2.49461ZM4.56684 22.4155V0.451172H4.97601V22.4155H4.56684ZM6.22992 22.4155V0.451172H7.04824V22.4155H6.22992ZM8.30215 22.4155V0.451172H8.71131V22.4155H8.30215ZM9.13369 22.4155V0.451172H9.54285V22.4155H9.13369ZM9.96522 22.4155V0.451172H10.3744V22.4155H9.96522ZM11.6151 22.4155V0.451172H12.4467V22.4155H11.6151ZM13.6874 22.4155V0.451172H14.5189V22.4155H13.6874ZM15.3504 22.4155V0.451172H16.182V22.4155H15.3504ZM17.0135 22.4155V0.451172H17.8451V22.4155H17.0135ZM18.2542 22.4155V0.451172H19.0857V22.4155H18.2542ZM20.3397 22.4155V0.451172H21.5804V22.4155H20.3397ZM21.9895 22.4155V0.451172H22.4119V22.4155H21.9895ZM22.8211 22.4312V0.451172H23.6526V22.4312H22.8211Z" fill="#263238"/>
</svg>
