<?xml version="1.0" standalone="no"?>
<!DOCTYPE svg PUBLIC "-//W3C//DTD SVG 20010904//EN"
 "http://www.w3.org/TR/2001/REC-SVG-20010904/DTD/svg10.dtd">
<svg version="1.0" xmlns="http://www.w3.org/2000/svg"
 width="280.000000pt" height="280.000000pt" viewBox="0 0 280.000000 280.000000"
 preserveAspectRatio="xMidYMid meet">
<metadata>
Created by potrace 1.11, written by Peter Selinger 2001-2013
</metadata>
<g transform="translate(0.000000,280.000000) scale(0.100000,-0.100000)"
fill="#000000" stroke="none">
<path d="M376 2779 c-128 -30 -286 -143 -324 -276 l-37 -78 0 -1026 0 -1026
42 -84 c54 -109 130 -184 240 -237 l78 -37 995 -3 c656 -2 1011 1 1043 8 157
33 302 167 357 329 20 61 20 72 18 1069 l-3 1007 -37 78 c-53 110 -128 186
-237 240 l-84 42 -1006 2 c-585 1 -1022 -3 -1045 -8z m1827 -1036 c80 -38 145
-102 184 -181 25 -51 28 -67 28 -162 0 -95 -3 -111 -28 -162 -39 -79 -104
-143 -185 -181 -60 -29 -76 -32 -157 -32 -120 0 -185 26 -264 104 -150 147
-158 368 -20 525 78 88 172 127 294 123 66 -3 94 -9 148 -34z m-755 16 c60
-12 124 -63 154 -122 28 -56 28 -146 1 -209 -21 -46 -89 -108 -120 -108 -7 0
-13 -4 -13 -9 0 -5 36 -69 79 -142 l80 -134 -87 -3 c-101 -3 -86 -16 -174 145
l-61 113 -58 0 -59 0 0 -130 0 -130 -80 0 -80 0 0 200 0 200 175 0 c223 0 255
13 255 105 0 27 -8 44 -29 66 l-29 29 -506 0 c-278 0 -506 2 -506 5 0 5 21 40
66 113 l14 22 465 0 c289 0 483 -4 513 -11z m-468 -232 c0 -47 -30 -123 -62
-156 -57 -59 -80 -65 -233 -71 l-140 -5 -3 -132 -3 -133 -74 0 -75 0 0 200 0
200 165 0 c178 0 219 8 249 51 9 13 16 34 16 46 0 22 3 23 80 23 77 0 80 -1
80 -23z"/>
<path d="M1950 1711 c-87 -27 -165 -95 -204 -180 -27 -60 -29 -198 -3 -251 9
-19 13 -24 9 -10 -4 14 -7 66 -7 115 0 68 5 100 19 130 44 91 116 157 206 188
45 16 28 22 -20 8z"/>
<path d="M1910 1400 c0 -93 4 -150 10 -150 6 0 10 57 10 150 0 93 -4 150 -10
150 -6 0 -10 -57 -10 -150z"/>
<path d="M1940 1400 c0 -93 4 -150 10 -150 6 0 10 57 10 150 0 93 -4 150 -10
150 -6 0 -10 -57 -10 -150z"/>
<path d="M1970 1400 c0 -127 2 -150 15 -150 13 0 15 23 15 150 0 127 -2 150
-15 150 -13 0 -15 -23 -15 -150z"/>
<path d="M2010 1400 c0 -143 1 -150 20 -150 19 0 20 7 20 150 0 143 -1 150
-20 150 -19 0 -20 -7 -20 -150z"/>
<path d="M2070 1400 c0 -127 2 -150 15 -150 13 0 15 23 15 150 0 127 -2 150
-15 150 -13 0 -15 -23 -15 -150z"/>
<path d="M2110 1400 c0 -143 1 -150 20 -150 19 0 20 7 20 150 0 143 -1 150
-20 150 -19 0 -20 -7 -20 -150z"/>
<path d="M2160 1400 c0 -117 3 -151 13 -147 9 3 12 41 12 147 0 106 -3 144
-12 148 -10 3 -13 -31 -13 -148z"/>
<path d="M1894 1400 c0 -74 1 -105 3 -67 2 37 2 97 0 135 -2 37 -3 6 -3 -68z"/>
</g>
</svg>
